<?xml version="1.0" encoding="UTF-8" standalone="no"?>
<svg
   xmlns:dc="http://purl.org/dc/elements/1.1/"
   xmlns:cc="http://creativecommons.org/ns#"
   xmlns:rdf="http://www.w3.org/1999/02/22-rdf-syntax-ns#"
   xmlns:svg="http://www.w3.org/2000/svg"
   xmlns="http://www.w3.org/2000/svg"
   id="svg8"
   version="1.1"
   viewBox="0 0 5.2462007 5.6786446"
   height="21.462593"
   width="19.828159">
  <defs
     id="defs2" />
  <metadata
     id="metadata5">
    <rdf:RDF>
      <cc:Work
         rdf:about="">
        <dc:format>image/svg+xml</dc:format>
        <dc:type
           rdf:resource="http://purl.org/dc/dcmitype/StillImage" />
        <dc:title></dc:title>
      </cc:Work>
    </rdf:RDF>
  </metadata>
  <g
     transform="translate(-97.361067,-75.43962)"
     id="layer1">
    <path
       id="path111"
       d="m 90.312141,72.904708 c 0.28787,-0.342646 0.36807,-0.667194 0.22292,-0.902048 -0.26968,-0.436352 -0.0574,-1.136113 0.28121,-0.926858 0.13028,0.08051 0.23686,-0.03923 0.23686,-0.266103 0,-0.639081 0.48187,-0.486377 0.57691,0.182823 0.0547,0.385111 0.29734,0.625505 0.6872,0.680822 l 0.602652,0.08551 -0.666132,-0.666129 c -0.61026,-0.610262 -0.70379,-1.703994 -0.11457,-1.339838 0.13027,0.08051 0.23686,-0.03923 0.23686,-0.266103 0,-0.639082 0.481872,-0.486378 0.576912,0.182822 0.0543,0.382576 0.29728,0.625526 0.67986,0.679861 0.56512,0.08026 0.86736,0.57691 0.35108,0.57691 -0.27886,0 -1.926072,1.585354 -1.653642,1.591552 0.0979,0.0022 0.005,0.11359 -0.20672,0.24747 -0.22054,0.139512 -0.5593,0.145767 -0.79358,0.01465 -0.27026,-0.151243 -0.58817,-0.0782 -0.93812,0.21555 -0.51508,0.432353 -0.51722,0.429905 -0.0797,-0.09089 z m 1.21445,-1.025605 c -0.18764,-0.203604 -0.38285,-0.330588 -0.4338,-0.282186 -0.15694,0.149082 0.2408,0.652376 0.51556,0.652376 0.14267,0 0.10587,-0.166585 -0.0818,-0.37019 z m 1.322912,-1.322916 C 92.661861,70.352583 92.466651,70.225599 92.415701,70.274 c -0.15694,0.149082 0.24081,0.652376 0.515562,0.652376 0.14267,0 0.10588,-0.166585 -0.0818,-0.370189 z m 1.12668,-0.414813 c -0.21133,-0.131129 -0.50899,-0.167651 -0.66146,-0.08116 -0.15246,0.08649 -0.1921,0.06298 -0.0881,-0.05225 0.10402,-0.115225 0.0826,-0.40862 -0.0477,-0.651989 -0.33776,-0.631109 0.10358,-1.299803 0.44968,-0.681342 0.23604,0.421774 0.26928,0.423183 0.42476,0.018 0.0991,-0.258296 0.0608,-0.372914 -0.0929,-0.27793 -0.14385,0.08891 -0.26155,0.04259 -0.26155,-0.102934 0,-0.145521 0.11906,-0.338169 0.26458,-0.428105 0.14552,-0.08994 0.26458,-0.03041 0.26458,0.132291 0,0.170455 0.14016,0.208256 0.33073,0.0892 0.6582,-0.411184 0.89556,-0.278403 0.86004,0.4811 -0.0454,0.96998 -0.90039,1.891615 -1.44272,1.555114 z m 0.91154,-0.799467 c 0.0927,-0.149982 -0.0135,-0.194339 -0.24897,-0.103985 -0.45837,0.175893 -0.54223,0.365537 -0.16165,0.365537 0.13693,0 0.32171,-0.117698 0.41062,-0.261552 z m 0.13416,-0.862927 c 0,-0.30985 -0.38543,-0.232764 -0.49609,0.09922 -0.0546,0.163711 0.0347,0.253008 0.19844,0.198437 0.16371,-0.05457 0.29765,-0.188515 0.29765,-0.297657 z"
       style="fill:#525252;stroke-width:0.26458335" />
    <path
       id="path105"
       d="m 73.619159,80.25731 c -0.05319,-0.109141 -0.01636,-0.615157 0.08185,-1.124479 0.158103,-0.819931 0.182555,-0.842669 0.213394,-0.198438 0.02826,0.590434 0.15953,0.727604 0.696288,0.727604 0.873577,0 0.834905,-0.336181 -0.132292,-1.150023 -0.436562,-0.367344 -0.79375,-0.802333 -0.79375,-0.966643 0,-0.164311 0.357188,-0.5993 0.79375,-0.966643 0.967197,-0.813843 1.005869,-1.150024 0.132292,-1.150024 -0.536758,0 -0.668025,0.13717 -0.696288,0.727604 -0.03084,0.644232 -0.05529,0.621494 -0.213394,-0.198437 -0.09821,-0.509323 -0.135041,-1.015339 -0.08185,-1.12448 0.05319,-0.10914 1.035164,-0.198437 2.182154,-0.198437 1.14699,0 2.128959,0.0893 2.182154,0.198437 0.05319,0.109141 0.01636,0.615157 -0.08185,1.12448 -0.158103,0.819931 -0.182555,0.842669 -0.213394,0.198437 -0.02826,-0.590434 -0.15953,-0.727604 -0.696288,-0.727604 -0.873577,0 -0.834905,0.336181 0.132292,1.150024 0.991966,0.834684 0.991966,1.098601 0,1.933286 -0.967197,0.813842 -1.005869,1.150023 -0.132292,1.150023 0.536758,0 0.668024,-0.13717 0.696288,-0.727604 0.03084,-0.644231 0.05529,-0.621493 0.213394,0.198438 0.09821,0.509322 0.135041,1.015338 0.08185,1.124479 -0.0532,0.10914 -1.035164,0.198437 -2.182154,0.198437 -1.14699,0 -2.12896,-0.0893 -2.182154,-0.198437 z m 3.306633,-0.259875 c -0.618463,-0.0557 -1.630495,-0.0557 -2.248958,0 -0.618464,0.0557 -0.112448,0.10128 1.124479,0.10128 1.236927,0 1.742943,-0.04558 1.124479,-0.10128 z m -0.06131,-1.531057 0.902395,-0.931035 -0.982784,-0.982784 -0.982784,-0.982784 -0.982784,0.982784 -0.982784,0.982784 0.902395,0.931035 c 0.496317,0.51207 0.974745,0.931036 1.063173,0.931036 0.08843,0 0.566856,-0.418966 1.063173,-0.931036 z M 75.238397,77.87606 c -0.329107,-0.419644 -0.319749,-0.429003 0.09989,-0.0999 0.392448,0.307779 0.533594,0.307779 0.926042,0 0.419644,-0.329108 0.429002,-0.319749 0.09989,0.0999 -0.199719,0.254661 -0.453031,0.463021 -0.562915,0.463021 -0.109884,0 -0.363196,-0.20836 -0.562916,-0.463021 z m 1.687395,-2.905709 c -0.618463,-0.0557 -1.630495,-0.0557 -2.248958,0 -0.618464,0.0557 -0.112448,0.10128 1.124479,0.10128 1.236927,0 1.742943,-0.04558 1.124479,-0.10128 z"
       style="fill:#7e7e7e;stroke-width:0.26458332" />
    <path
       id="path107"
       d="m 80.589822,79.812177 c -0.0958,-0.249651 -0.0337,-0.493117 0.140595,-0.551216 0.171702,-0.05723 0.312185,-0.424835 0.312185,-0.816891 0,-1.080765 0.69057,-1.888906 1.614101,-1.888906 0.478793,0 0.773416,-0.130373 0.747399,-0.330729 -0.09573,-0.737211 0.04533,-0.992188 0.548916,-0.992188 0.503585,0 0.644648,0.254977 0.548917,0.992188 -0.02602,0.200356 0.268606,0.330729 0.747398,0.330729 0.923532,0 1.614102,0.808141 1.614102,1.888906 0,0.392056 0.140483,0.759658 0.312184,0.816891 0.174296,0.0581 0.236396,0.301565 0.140596,0.551216 -0.147976,0.38562 -0.61079,0.447153 -3.363197,0.447153 -2.752407,0 -3.21522,-0.06153 -3.363196,-0.447153 z m 6.405905,-0.08201 c 0.105578,-0.170829 -0.972597,-0.264584 -3.042709,-0.264584 -2.070112,0 -3.148286,0.09376 -3.042708,0.264584 0.0928,0.150161 1.408654,0.264583 3.042708,0.264583 1.634055,0 2.949904,-0.114422 3.042709,-0.264583 z m -0.526874,-1.279956 c 0.02474,-0.340173 -0.144345,-0.852305 -0.375744,-1.138071 -0.358531,-0.442766 -0.69315,-0.507786 -2.263581,-0.439836 -1.668675,0.0722 -1.879146,0.144586 -2.226829,0.765849 -0.742601,1.326932 -0.322532,1.591677 2.39065,1.506689 2.334544,-0.07313 2.432299,-0.100558 2.475504,-0.694631 z m -2.251251,-2.556503 c 0,-0.218281 -0.119063,-0.396875 -0.264584,-0.396875 -0.145521,0 -0.264583,0.178594 -0.264583,0.396875 0,0.218282 0.119062,0.396875 0.264583,0.396875 0.145521,0 0.264584,-0.178593 0.264584,-0.396875 z"
       style="fill:#616161;stroke-width:0.26458332" />
    <path
       id="path109"
       d="m 97.390178,80.938639 c -0.0729,-0.117983 -0.004,-0.551572 0.1522,-0.963532 0.15663,-0.411961 0.24678,-1.23246 0.20033,-1.823332 -0.0749,-0.952451 0.0246,-1.17013 0.87653,-1.919018 1.19117,-1.047059 1.561442,-1.053051 2.710842,-0.04386 0.79535,0.698328 0.92804,0.994671 1.03658,2.315104 0.0685,0.832846 0.16817,1.75239 0.22158,2.043432 0.0913,0.497593 -0.0569,0.53145 -2.48419,0.567445 -1.419712,0.02105 -2.640952,-0.05825 -2.713872,-0.176234 z m 4.705782,-0.270812 c 0.0508,-0.06622 0.0439,-0.745477 -0.0154,-1.509462 l -0.10776,-1.389062 h -1.95884 -1.958842 v 1.036694 c 0,0.570181 -0.0683,1.214611 -0.15172,1.432066 -0.093,0.24246 0.0349,0.448823 0.33073,0.533572 0.55892,0.160106 3.724612,0.07501 3.861812,-0.103808 z m -0.0721,-3.427691 c 0,-0.15287 -0.83785,-0.264583 -1.98437,-0.264583 -1.146532,0 -1.984382,0.111713 -1.984382,0.264583 0,0.152871 0.83785,0.264584 1.984382,0.264584 1.14652,0 1.98437,-0.111713 1.98437,-0.264584 z m -0.79375,-0.822057 c 0,-0.16109 -0.18478,-0.221985 -0.41062,-0.135322 -0.23704,0.09096 -0.3418,0.04622 -0.24781,-0.105853 0.25357,-0.410288 -0.56095,-0.598297 -1.172982,-0.270749 -0.89324,0.478048 -0.63307,0.804815 0.640792,0.804815 0.69407,0 1.19062,-0.12215 1.19062,-0.292891 z"
       style="fill:#606060;stroke-width:0.26458332" />
  </g>
</svg>
